<svg xmlns="http://www.w3.org/2000/svg" xmlns:xlink="http://www.w3.org/1999/xlink" width="1080" zoomAndPan="magnify" viewBox="0 0 810 809.999993" height="1080" preserveAspectRatio="xMidYMid meet" version="1.2"><g id="85272f5b75"><path style=" stroke:none;fill-rule:nonzero;fill:#ff7043;fill-opacity:1;" d="M 545.121094 623.839844 C 417.074219 623.839844 289.480469 623.84375 161.886719 623.835938 C 148.945312 623.835938 139.707031 617.292969 135.898438 605.5 C 131.539062 592.015625 142.175781 575.242188 156.382812 574.863281 C 179.101562 574.253906 201.847656 573.640625 224.589844 574.378906 C 226.09375 574.425781 227.597656 574.5625 229.101562 574.5625 C 266.460938 574.585938 303.820312 574.59375 341.179688 574.605469 C 347.976562 574.609375 354.414062 573.46875 359.496094 568.453125 C 366.042969 561.996094 367.691406 554.292969 364.875 545.644531 C 362.167969 537.347656 356.121094 532.988281 347.722656 531.566406 C 347.128906 531.464844 346.53125 531.375 345.933594 531.296875 C 326.980469 528.742188 319.90625 520.585938 319.898438 501.289062 C 319.890625 487.882812 319.921875 474.476562 319.84375 461.070312 C 319.765625 447.800781 310.71875 438.792969 297.320312 438.707031 C 282.558594 438.613281 267.796875 438.707031 253.03125 438.65625 C 237.890625 438.605469 227.554688 428.242188 227.535156 413.046875 C 227.5 383.367188 227.554688 353.691406 227.527344 324.015625 C 227.515625 308.9375 218.742188 300.171875 203.660156 300.117188 C 189.648438 300.066406 175.636719 300.160156 161.628906 300.054688 C 148.976562 299.957031 140.230469 294.074219 136.386719 283.324219 C 130.992188 268.25 141.472656 252.226562 157.496094 251.09375 C 159.445312 250.957031 161.410156 251.003906 163.367188 251.003906 C 216.84375 250.992188 270.324219 251.003906 323.800781 250.960938 C 330.875 250.957031 337.953125 250.742188 345.027344 250.5 C 357.296875 250.082031 365.433594 241.996094 366.140625 229.644531 C 366.75 218.992188 371.382812 210.996094 381.367188 206.484375 C 383.605469 205.472656 385.90625 204.867188 388.335938 204.769531 C 405.789062 204.082031 423.269531 203.503906 440.679688 204.980469 C 452.632812 205.992188 461.679688 216.628906 462.117188 228.683594 C 462.625 242.613281 470.738281 250.167969 484.777344 250.554688 C 511.289062 251.277344 537.796875 250.878906 564.304688 250.910156 C 584.785156 250.933594 605.269531 250.464844 625.75 250.601562 C 638.699219 250.6875 651.636719 250.984375 664.589844 250.597656 C 676.292969 250.253906 685.808594 254.25 691.121094 265.601562 C 697.722656 279.707031 688.164062 297.824219 672.652344 299.449219 C 656.90625 301.097656 641.046875 299.804688 625.242188 300.128906 C 622.386719 300.1875 619.53125 300.050781 616.730469 300.902344 C 606.535156 304.003906 600.917969 311.054688 600.792969 322.398438 C 600.472656 351.914062 599.917969 381.441406 601.042969 410.953125 C 601.648438 426.769531 590.757812 438.65625 575.078125 438.695312 C 560.46875 438.730469 545.855469 438.640625 531.242188 438.6875 C 517.238281 438.730469 508.089844 447.933594 508.050781 461.96875 C 508.011719 475.675781 508.078125 489.382812 508.023438 503.09375 C 507.949219 520.796875 499.847656 529.777344 482.160156 531.394531 C 473.140625 532.21875 466.597656 536.589844 463.445312 544.820312 C 460.425781 552.714844 461.359375 560.585938 467.359375 567.175781 C 470.796875 570.957031 475.078125 573.5 480.238281 573.898438 C 485.933594 574.34375 491.664062 574.558594 497.382812 574.5625 C 554.023438 574.605469 610.667969 574.777344 667.304688 574.4375 C 680.824219 574.355469 690.511719 584.363281 692.605469 593.582031 C 696.152344 609.199219 684.214844 623.734375 667.585938 623.828125 C 644.835938 623.953125 622.089844 623.851562 599.34375 623.847656 C 581.417969 623.84375 563.496094 623.84375 545.121094 623.839844 M 411.78125 527.851562 C 420.214844 527.851562 428.648438 527.964844 437.082031 527.816406 C 450.0625 527.589844 458.957031 518.378906 458.960938 505.328125 C 458.96875 475.207031 458.933594 445.085938 458.957031 414.964844 C 458.96875 399.820312 469.367188 389.472656 484.535156 389.441406 C 499.292969 389.410156 514.054688 389.40625 528.8125 389.402344 C 542.558594 389.402344 551.90625 377.96875 551.417969 366.929688 C 550.75 351.898438 550.917969 336.808594 551.355469 321.757812 C 551.667969 311.003906 542.746094 300.871094 530.792969 300.222656 C 527.488281 300.042969 524.167969 300.125 520.855469 300.125 C 447.511719 300.105469 374.167969 300.074219 300.820312 300.085938 C 285.238281 300.085938 276.816406 308.53125 276.777344 324.070312 C 276.742188 337.925781 276.769531 351.78125 276.800781 365.636719 C 276.832031 380.613281 285.722656 389.4375 300.757812 389.441406 C 314.914062 389.445312 329.070312 389.402344 343.226562 389.449219 C 345.46875 389.457031 347.773438 389.542969 349.9375 390.054688 C 362.476562 393.035156 370.015625 403.132812 369.742188 417.175781 C 369.175781 446.234375 368.945312 475.296875 369.128906 504.359375 C 369.222656 519.28125 377.910156 527.824219 392.804688 527.863281 C 398.828125 527.875 404.851562 527.855469 411.78125 527.851562 Z M 411.78125 527.851562 "/><path style=" stroke:none;fill-rule:nonzero;fill:#52796f;fill-opacity:1;" d="M 537.398438 616.605469 C 409.355469 616.605469 281.757812 616.609375 154.164062 616.605469 C 141.222656 616.605469 131.988281 610.0625 128.175781 598.265625 C 123.820312 584.78125 134.453125 568.011719 148.660156 567.628906 C 171.382812 567.019531 194.125 566.40625 216.867188 567.144531 C 218.371094 567.195312 219.875 567.332031 221.378906 567.332031 C 258.738281 567.355469 296.097656 567.363281 333.457031 567.375 C 340.253906 567.378906 346.691406 566.234375 351.777344 561.222656 C 358.320312 554.765625 359.972656 547.0625 357.152344 538.414062 C 354.449219 530.117188 348.402344 525.757812 340 524.332031 C 339.40625 524.230469 338.8125 524.144531 338.214844 524.0625 C 319.261719 521.507812 312.1875 513.351562 312.175781 494.058594 C 312.167969 480.652344 312.199219 467.242188 312.121094 453.835938 C 312.042969 440.570312 303 431.5625 289.601562 431.476562 C 274.839844 431.378906 260.074219 431.472656 245.3125 431.425781 C 230.167969 431.375 219.832031 421.011719 219.8125 405.8125 C 219.78125 376.136719 219.832031 346.460938 219.804688 316.785156 C 219.792969 301.707031 211.023438 292.9375 195.9375 292.886719 C 181.925781 292.835938 167.917969 292.925781 153.90625 292.820312 C 141.257812 292.726562 132.507812 286.839844 128.664062 276.09375 C 123.273438 261.015625 133.753906 244.992188 149.773438 243.863281 C 151.722656 243.726562 153.6875 243.769531 155.644531 243.769531 C 209.125 243.761719 262.601562 243.773438 316.082031 243.730469 C 323.15625 243.722656 330.234375 243.507812 337.304688 243.265625 C 349.574219 242.847656 357.710938 234.765625 358.421875 222.414062 C 359.03125 211.757812 363.660156 203.765625 373.644531 199.253906 C 375.882812 198.242188 378.1875 197.636719 380.613281 197.539062 C 398.066406 196.851562 415.550781 196.269531 432.957031 197.746094 C 444.914062 198.761719 453.957031 209.394531 454.398438 221.449219 C 454.90625 235.382812 463.015625 242.9375 477.058594 243.320312 C 503.566406 244.042969 530.074219 243.648438 556.582031 243.679688 C 577.066406 243.703125 597.550781 243.230469 618.03125 243.371094 C 630.976562 243.457031 643.914062 243.75 656.867188 243.367188 C 668.574219 243.019531 678.085938 247.015625 683.398438 258.367188 C 690.003906 272.476562 680.441406 290.59375 664.929688 292.21875 C 649.183594 293.867188 633.328125 292.574219 617.519531 292.898438 C 614.667969 292.957031 611.808594 292.820312 609.007812 293.671875 C 598.816406 296.773438 593.195312 303.824219 593.074219 315.164062 C 592.753906 344.683594 592.195312 374.207031 593.324219 403.71875 C 593.925781 419.535156 583.039062 431.421875 567.359375 431.460938 C 552.746094 431.5 538.132812 431.40625 523.523438 431.453125 C 509.515625 431.5 500.367188 440.703125 500.328125 454.734375 C 500.289062 468.445312 500.355469 482.152344 500.300781 495.859375 C 500.226562 513.566406 492.125 522.542969 474.4375 524.160156 C 465.417969 524.984375 458.875 529.355469 455.726562 537.585938 C 452.703125 545.480469 453.640625 553.355469 459.636719 559.945312 C 463.078125 563.722656 467.355469 566.265625 472.515625 566.667969 C 478.214844 567.109375 483.945312 567.324219 489.660156 567.332031 C 546.300781 567.371094 602.945312 567.546875 659.585938 567.203125 C 673.101562 567.121094 682.792969 577.132812 684.886719 586.347656 C 688.429688 601.964844 676.496094 616.503906 659.863281 616.59375 C 637.117188 616.722656 614.367188 616.621094 591.621094 616.617188 C 573.699219 616.613281 555.773438 616.609375 537.398438 616.605469 M 404.058594 520.621094 C 412.492188 520.617188 420.929688 520.734375 429.359375 520.585938 C 442.339844 520.355469 451.238281 511.148438 451.242188 498.09375 C 451.25 467.972656 451.210938 437.851562 451.234375 407.730469 C 451.25 392.589844 461.644531 382.238281 476.8125 382.207031 C 491.574219 382.175781 506.332031 382.171875 521.089844 382.171875 C 534.835938 382.171875 544.183594 370.734375 543.695312 359.699219 C 543.03125 344.667969 543.199219 329.574219 543.632812 314.527344 C 543.945312 303.773438 535.023438 293.640625 523.070312 292.992188 C 519.769531 292.8125 516.449219 292.894531 513.136719 292.894531 C 439.789062 292.871094 366.445312 292.839844 293.101562 292.851562 C 277.515625 292.855469 269.09375 301.300781 269.054688 316.835938 C 269.023438 330.691406 269.046875 344.546875 269.078125 358.402344 C 269.113281 373.378906 278.003906 382.207031 293.035156 382.210938 C 307.195312 382.210938 321.351562 382.171875 335.507812 382.21875 C 337.75 382.222656 340.054688 382.308594 342.21875 382.824219 C 354.757812 385.800781 362.292969 395.902344 362.019531 409.945312 C 361.453125 439.003906 361.222656 468.0625 361.40625 497.125 C 361.5 512.046875 370.1875 520.59375 385.082031 520.628906 C 391.105469 520.644531 397.128906 520.625 404.058594 520.621094 Z M 404.058594 520.621094 "/></g></svg>